<?xml version="1.0" encoding="UTF-8"?>
<svg version="1.1" xmlns="http://www.w3.org/2000/svg" width="512" height="512">
<path d="M0 0 C0.73207169 -0.00832352 1.46414337 -0.01664703 2.21839905 -0.02522278 C4.64068917 -0.04933478 7.06270998 -0.05809687 9.48510742 -0.06469727 C11.17038555 -0.07366375 12.85566285 -0.0827856 14.54093933 -0.09205627 C18.07581517 -0.10855281 21.61059623 -0.1162474 25.14550781 -0.11914062 C29.66845956 -0.12452062 34.19051655 -0.16218116 38.71321583 -0.20788479 C42.19544194 -0.23767542 45.6774533 -0.24486463 49.15979576 -0.24586678 C50.82673929 -0.25006628 52.49368362 -0.26248989 54.16050148 -0.28338432 C56.49698601 -0.31033796 58.83140649 -0.30546305 61.16796875 -0.29296875 C61.85234009 -0.30780304 62.53671143 -0.32263733 63.24182129 -0.33792114 C68.78488246 -0.25380325 71.01065386 1.53801946 74.77807617 5.30639648 C77.06464089 8.73624357 77.39479274 11.00975317 78.03198242 15.06420898 C78.13776108 15.72669647 78.24353973 16.38918396 78.3525238 17.07174683 C78.57521563 18.47494127 78.79437485 19.87870027 79.01025391 21.28295898 C79.33635941 23.40397038 79.6723765 25.52320843 80.01049805 27.64233398 C80.9060843 33.30817193 81.78156329 38.96546507 82.36791992 44.67358398 C82.54739289 48.13173329 82.54739289 48.13173329 83.77807617 50.30639648 C85.64386301 51.32198808 87.54659725 52.27029456 89.46557617 53.18139648 C92.90047763 54.83388454 96.08959293 56.39066646 99.09057617 58.74389648 C101.71941554 60.5633077 101.71941554 60.5633077 104.96557617 60.36889648 C109.04079971 59.23317845 112.59331983 57.65443625 116.40698242 55.84545898 C120.56459499 53.94731373 124.77767683 52.23437947 129.02807617 50.55639648 C129.78451416 50.25072754 130.54095215 49.94505859 131.3203125 49.63012695 C138.01352171 47.00928759 144.493336 45.11557052 151.45776367 47.73608398 C156.806081 51.35565228 159.69758289 57.77935493 162.77807617 63.30639648 C163.53933577 64.647803 164.30105523 65.98894863 165.06323242 67.32983398 C166.20554717 69.34959306 167.34224279 71.37190456 168.46679688 73.40161133 C171.45865235 78.80148174 174.66474122 84.03187102 177.93041992 89.27124023 C180.24577878 93.07469442 182.38096385 96.95435836 184.45776367 100.89233398 C185.69939609 103.25436751 185.69939609 103.25436751 187.03588867 105.15795898 C190.52961901 110.3130436 190.51491708 115.31839818 189.77807617 121.30639648 C187.86782432 126.55958908 183.01058693 129.85471099 178.77807617 133.30639648 C177.96854492 133.96768555 177.15901367 134.62897461 176.32495117 135.31030273 C170.06721759 140.30639648 170.06721759 140.30639648 167.77807617 140.30639648 C167.77807617 140.96639648 167.77807617 141.62639648 167.77807617 142.30639648 C166.31713867 143.59545898 166.31713867 143.59545898 164.40307617 144.93139648 C163.7765918 145.37741211 163.15010742 145.82342773 162.50463867 146.28295898 C160.77807617 147.30639648 160.77807617 147.30639648 158.77807617 147.30639648 C158.77807617 147.96639648 158.77807617 148.62639648 158.77807617 149.30639648 C157.29307617 150.29639648 157.29307617 150.29639648 155.77807617 151.30639648 C155.31202643 153.78961908 155.31202643 153.78961908 155.37963867 156.68139648 C155.37577148 157.74874023 155.3719043 158.81608398 155.36791992 159.91577148 C155.37952148 161.03467773 155.39112305 162.15358398 155.40307617 163.30639648 C155.38567383 164.98475586 155.38567383 164.98475586 155.36791992 166.69702148 C155.37178711 167.76436523 155.3756543 168.83170898 155.37963867 169.93139648 C155.38302246 170.91366211 155.38640625 171.89592773 155.38989258 172.90795898 C155.51799316 173.69944336 155.64609375 174.49092773 155.77807617 175.30639648 C156.76807617 175.96639648 157.75807617 176.62639648 158.77807617 177.30639648 C158.77807617 177.96639648 158.77807617 178.62639648 158.77807617 179.30639648 C159.52057617 179.57452148 160.26307617 179.84264648 161.02807617 180.11889648 C163.66869566 181.25916399 165.63360461 182.40019954 167.77807617 184.30639648 C167.77807617 184.96639648 167.77807617 185.62639648 167.77807617 186.30639648 C168.45870117 186.51264648 169.13932617 186.71889648 169.84057617 186.93139648 C173.7795365 188.77516515 176.56522731 191.41614925 179.77807617 194.30639648 C180.48963867 194.90323242 181.20120117 195.50006836 181.93432617 196.11499023 C182.64588867 196.7144043 183.35745117 197.31381836 184.09057617 197.93139648 C185.07477539 198.75510742 185.07477539 198.75510742 186.07885742 199.59545898 C189.17453494 202.712486 190.16573212 205.78115252 190.46557617 210.11889648 C190.35243192 217.8229912 185.9962472 223.3719127 181.89282227 229.58276367 C180.45684026 231.80309503 179.20091993 234.09425965 177.96557617 236.43139648 C156.68186743 276.02622896 156.68186743 276.02622896 149.77026367 279.23999023 C143.31337252 280.77677798 138.88687773 279.65728006 132.77807617 277.30639648 C131.22540039 276.73985352 131.22540039 276.73985352 129.64135742 276.16186523 C124.28452673 274.16494018 119.06770727 272.00764801 113.90307617 269.55639648 C108.08670455 266.82452027 108.08670455 266.82452027 101.77807617 266.30639648 C98.8551355 267.87225756 96.16746925 269.6330291 93.44213867 271.52124023 C91.18503267 273.03369983 89.16604235 274.13129044 86.65307617 275.11889648 C83.6654741 275.98497045 83.6654741 275.98497045 82.77807617 278.30639648 C82.36640588 280.85261903 81.99687685 283.39109369 81.65698242 285.94702148 C81.44159808 287.50823464 81.22609963 289.06943206 81.01049805 290.63061523 C80.67506288 293.09014646 80.34145022 295.54990409 80.01025391 298.01000977 C79.68909898 300.38555187 79.36089773 302.76004324 79.03198242 305.13452148 C78.93607315 305.86286194 78.84016388 306.59120239 78.74134827 307.34161377 C77.79517143 314.12863097 76.46224786 319.19639101 71.77807617 324.30639648 C68.21426629 326.68226974 65.67143583 326.60883129 61.55615234 326.61279297 C60.82408066 326.62111649 60.09200897 326.62944 59.3377533 326.63801575 C56.91546317 326.66212775 54.49344237 326.67088984 52.07104492 326.67749023 C50.3857668 326.68645672 48.70048949 326.69557857 47.01521301 326.70484924 C43.48033718 326.72134578 39.94555612 326.72904037 36.41064453 326.73193359 C31.88769279 326.73731359 27.3656358 326.77497413 22.84293652 326.82067776 C19.3607104 326.85046839 15.87869904 326.8576576 12.39635658 326.85865974 C10.72941305 326.86285925 9.06246873 326.87528286 7.39565086 326.89617729 C5.05916633 326.92313093 2.72474585 326.91825602 0.38818359 326.90576172 C-0.63837341 326.92801315 -0.63837341 326.92801315 -1.68566895 326.95071411 C-7.22840859 326.8666011 -9.4907803 325.12423651 -13.22192383 321.30639648 C-16.28405255 316.38823902 -16.73676613 310.55376736 -17.15161133 304.89624023 C-17.30742588 303.3132558 -17.46637562 301.73057739 -17.62817383 300.14819336 C-17.87187515 297.69128113 -18.09727471 295.2388865 -18.26977539 292.77587891 C-18.75246595 282.72552598 -18.75246595 282.72552598 -24.10571289 274.76782227 C-27.4197006 273.00064467 -30.72581068 271.66622458 -34.22192383 270.30639648 C-35.2839502 269.59346436 -36.34597656 268.88053223 -37.44018555 268.14599609 C-40.10940183 266.02419667 -40.10940183 266.02419667 -43.40942383 266.24389648 C-47.48464737 267.37961452 -51.03716749 268.95835672 -54.85083008 270.76733398 C-59.00844265 272.66547924 -63.22152449 274.3784135 -67.47192383 276.05639648 C-68.22836182 276.36206543 -68.9847998 276.66773438 -69.76416016 276.98266602 C-76.57070724 279.64788474 -82.88754073 281.39617947 -89.95629883 278.76342773 C-96.95475196 274.2626984 -100.64633986 264.54027329 -104.52001953 257.40649414 C-107.3466321 252.25768817 -110.26300381 247.16039142 -113.1809082 242.06298828 C-114.22223691 240.2433494 -115.26124693 238.42240068 -116.30004883 236.60131836 C-116.98226583 235.4079163 -117.66455657 234.21455639 -118.34692383 233.02124023 C-119.32640991 231.30626343 -119.32640991 231.30626343 -120.32568359 229.55664062 C-122.05350484 226.59507448 -123.85841177 223.69855719 -125.68676758 220.79858398 C-128.87940845 215.50330078 -129.17819279 211.36933889 -128.22192383 205.30639648 C-126.31167198 200.05320389 -121.45443458 196.75808198 -117.22192383 193.30639648 C-116.41239258 192.64510742 -115.60286133 191.98381836 -114.76879883 191.30249023 C-108.51106524 186.30639648 -108.51106524 186.30639648 -106.22192383 186.30639648 C-106.22192383 185.64639648 -106.22192383 184.98639648 -106.22192383 184.30639648 C-104.76098633 183.01733398 -104.76098633 183.01733398 -102.84692383 181.68139648 C-102.22043945 181.23538086 -101.59395508 180.78936523 -100.94848633 180.32983398 C-99.22192383 179.30639648 -99.22192383 179.30639648 -97.22192383 179.30639648 C-97.22192383 178.64639648 -97.22192383 177.98639648 -97.22192383 177.30639648 C-95.73692383 176.31639648 -95.73692383 176.31639648 -94.22192383 175.30639648 C-93.75587409 172.82317389 -93.75587409 172.82317389 -93.82348633 169.93139648 C-93.81961914 168.86405273 -93.81575195 167.79670898 -93.81176758 166.69702148 C-93.82336914 165.57811523 -93.8349707 164.45920898 -93.84692383 163.30639648 C-93.83532227 162.18749023 -93.8237207 161.06858398 -93.81176758 159.91577148 C-93.81756836 158.31475586 -93.81756836 158.31475586 -93.82348633 156.68139648 C-93.82687012 155.69913086 -93.83025391 154.71686523 -93.83374023 153.70483398 C-93.96184082 152.91334961 -94.08994141 152.12186523 -94.22192383 151.30639648 C-95.21192383 150.64639648 -96.20192383 149.98639648 -97.22192383 149.30639648 C-97.22192383 148.64639648 -97.22192383 147.98639648 -97.22192383 147.30639648 C-97.96442383 147.03827148 -98.70692383 146.77014648 -99.47192383 146.49389648 C-102.11254332 145.35362898 -104.07745227 144.21259343 -106.22192383 142.30639648 C-106.22192383 141.64639648 -106.22192383 140.98639648 -106.22192383 140.30639648 C-106.90254883 140.10014648 -107.58317383 139.89389648 -108.28442383 139.68139648 C-112.22338415 137.83762782 -115.00907497 135.19664372 -118.22192383 132.30639648 C-118.93348633 131.70956055 -119.64504883 131.11272461 -120.37817383 130.49780273 C-121.08973633 129.89838867 -121.80129883 129.29897461 -122.53442383 128.68139648 C-123.19055664 128.13225586 -123.84668945 127.58311523 -124.52270508 127.01733398 C-127.66678408 123.85157167 -128.57701891 120.74408711 -128.77270508 116.33764648 C-128.62340748 109.01599534 -125.20959517 103.87346453 -121.40942383 97.80639648 C-120.71813541 96.66437549 -120.0292784 95.52087943 -119.34277344 94.37597656 C-117.96575506 92.08494626 -116.57665692 89.80294591 -115.17993164 87.52368164 C-112.46397291 83.06097538 -109.87482108 78.53012986 -107.28442383 73.99389648 C-104.1602081 68.59372792 -101.01362703 63.20706072 -97.78442383 57.86889648 C-97.18758789 56.88018555 -96.59075195 55.89147461 -95.97583008 54.87280273 C-93.25849958 50.89666434 -90.89038767 48.00977625 -86.09692383 46.86889648 C-80.55058629 45.85718671 -76.3837983 47.31992405 -71.22192383 49.30639648 C-70.18680664 49.6840918 -69.15168945 50.06178711 -68.08520508 50.45092773 C-62.72837438 52.44785279 -57.51155493 54.60514496 -52.34692383 57.05639648 C-46.53055221 59.7882727 -46.53055221 59.7882727 -40.22192383 60.30639648 C-37.38132095 58.8025479 -34.78618464 57.12014296 -32.16333008 55.26342773 C-29.22192383 53.30639648 -29.22192383 53.30639648 -27.15625 52.54858398 C-24.84420028 51.67821426 -23.12637672 50.88893152 -21.22192383 49.30639648 C-19.83671579 45.83852485 -19.65051725 42.38467563 -19.40942383 38.68139648 C-19.2046498 36.60695368 -18.99758932 34.5327354 -18.78833008 32.45874023 C-18.69567871 31.42475098 -18.60302734 30.39076172 -18.50756836 29.32543945 C-18.09275246 24.94115447 -17.51190779 20.59643508 -16.84692383 16.24389648 C-16.75693115 15.52572754 -16.66693848 14.80755859 -16.57421875 14.06762695 C-15.74807777 8.67034426 -13.94556144 6.09190723 -10.22192383 2.30639648 C-6.65811395 -0.06947677 -4.11528348 0.00396168 0 0 Z M-1.22192383 119.30639648 C-1.22192383 119.96639648 -1.22192383 120.62639648 -1.22192383 121.30639648 C-1.75817383 121.51264648 -2.29442383 121.71889648 -2.84692383 121.93139648 C-6.14170391 123.83890074 -8.81556011 126.35459032 -11.22192383 129.30639648 C-11.22192383 129.96639648 -11.22192383 130.62639648 -11.22192383 131.30639648 C-11.88192383 131.30639648 -12.54192383 131.30639648 -13.22192383 131.30639648 C-14.35204035 133.51223889 -15.47608171 135.72084675 -16.59692383 137.93139648 C-16.9140332 138.54885742 -17.23114258 139.16631836 -17.55786133 139.80249023 C-23.02968381 150.6321389 -24.97125295 163.33652821 -22.22192383 175.30639648 C-19.8131953 182.23487405 -16.59784588 188.80462068 -13.22192383 195.30639648 C-12.56192383 195.30639648 -11.90192383 195.30639648 -11.22192383 195.30639648 C-11.01567383 195.84264648 -10.80942383 196.37889648 -10.59692383 196.93139648 C-8.68941957 200.22617657 -6.17372999 202.90003277 -3.22192383 205.30639648 C-2.56192383 205.30639648 -1.90192383 205.30639648 -1.22192383 205.30639648 C-1.22192383 205.96639648 -1.22192383 206.62639648 -1.22192383 207.30639648 C0.98391858 208.436513 3.19252644 209.56055437 5.40307617 210.68139648 C6.02053711 210.99850586 6.63799805 211.31561523 7.27416992 211.64233398 C18.10381859 217.11415647 30.8082079 219.0557256 42.77807617 216.30639648 C49.70655374 213.89766795 56.27630037 210.68231853 62.77807617 207.30639648 C62.77807617 206.64639648 62.77807617 205.98639648 62.77807617 205.30639648 C63.58245117 204.99702148 63.58245117 204.99702148 64.40307617 204.68139648 C67.69785626 202.77389222 70.37171245 200.25820264 72.77807617 197.30639648 C72.77807617 196.64639648 72.77807617 195.98639648 72.77807617 195.30639648 C73.43807617 195.30639648 74.09807617 195.30639648 74.77807617 195.30639648 C75.90819269 193.10055408 77.03223405 190.89194622 78.15307617 188.68139648 C78.62874023 187.75520508 78.62874023 187.75520508 79.11401367 186.81030273 C84.58583615 175.98065407 86.52740529 163.27626476 83.77807617 151.30639648 C81.36934764 144.37791892 78.15399822 137.80817228 74.77807617 131.30639648 C74.11807617 131.30639648 73.45807617 131.30639648 72.77807617 131.30639648 C72.46870117 130.50202148 72.46870117 130.50202148 72.15307617 129.68139648 C70.24557191 126.3866164 67.72988233 123.7127602 64.77807617 121.30639648 C64.11807617 121.30639648 63.45807617 121.30639648 62.77807617 121.30639648 C62.77807617 120.64639648 62.77807617 119.98639648 62.77807617 119.30639648 C60.57223377 118.17627996 58.3636259 117.0522386 56.15307617 115.93139648 C55.22688477 115.45573242 55.22688477 115.45573242 54.28198242 114.97045898 C34.74261453 105.09793626 17.17697852 109.75312026 -1.22192383 119.30639648 Z " fill="#FEFEFE" transform="translate(225.221923828125,92.693603515625)"/>
</svg>
