<?xml version="1.0" encoding="UTF-8"?>
<svg version="1.1" xmlns="http://www.w3.org/2000/svg" width="512" height="512">
<path d="M0 0 C0.97672511 -0.00260775 1.95345022 -0.00521549 2.95977306 -0.00790226 C4.04564363 -0.00567154 5.13151419 -0.00344082 6.25028992 -0.0011425 C7.9656052 -0.00348249 7.9656052 -0.00348249 9.71557331 -0.00586975 C12.90383687 -0.00918289 16.09206276 -0.00797066 19.28032541 -0.00488353 C22.7132173 -0.00263121 26.1461039 -0.0061082 29.57899475 -0.00886345 C36.30961512 -0.01332195 43.04022436 -0.01234433 49.77084517 -0.00945081 C55.23849183 -0.00719709 60.70613536 -0.00688412 66.17378235 -0.00797462 C66.95045928 -0.00812786 67.72713622 -0.00828109 68.52734882 -0.00843897 C70.10490155 -0.00875868 71.68245429 -0.00908289 73.26000702 -0.00941156 C88.07043327 -0.01226658 102.88085334 -0.00897898 117.69127858 -0.00361119 C130.4133447 0.00085687 143.1354017 0.00008094 155.85746765 -0.00452995 C170.61305867 -0.00987532 185.36864426 -0.01199189 200.12423611 -0.00891769 C201.6961511 -0.00859912 203.26806609 -0.00828475 204.83998108 -0.00797462 C205.61349625 -0.00782035 206.38701143 -0.00766607 207.18396646 -0.00750712 C212.64826513 -0.00664185 218.11256038 -0.00810506 223.57685852 -0.01045418 C230.23138843 -0.01325196 236.88590653 -0.01251438 243.54043508 -0.00717343 C246.93896971 -0.00453612 250.33748463 -0.00353185 253.73601913 -0.00682259 C257.41185731 -0.00953083 261.087639 -0.00615697 264.76347351 -0.0011425 C266.39227935 -0.00448858 266.39227935 -0.00448858 268.05399036 -0.00790226 C269.51907803 -0.00399064 269.51907803 -0.00399064 271.01376343 0 C271.86341517 0.00016235 272.71306692 0.0003247 273.58846569 0.00049198 C275.50688171 0.12584114 275.50688171 0.12584114 276.50688171 1.12584114 C276.45158024 2.95940065 276.31982956 4.79067946 276.15922546 6.61802864 C276.05851746 7.80106575 275.95780945 8.98410286 275.85404968 10.20298958 C275.68220154 12.1448011 275.68220154 12.1448011 275.50688171 14.12584114 C275.39418563 15.46203026 275.28238343 16.79829504 275.1714325 18.1346302 C274.93443513 20.98808274 274.69540717 23.84134921 274.45414734 26.69444466 C273.41250922 39.02177711 272.393021 51.34866224 271.50688171 63.68834114 C270.50676111 77.54925635 269.31035496 91.39148006 268.10411072 105.23564339 C267.62206824 110.77518075 267.15045137 116.31555218 266.68266296 121.85630989 C266.48083024 124.23969898 266.27888552 126.62307857 266.07691956 129.00645638 C265.94842536 130.52627066 265.82042248 132.04612658 265.69294739 133.56602669 C264.57678452 146.86438945 264.57678452 146.86438945 263.94438171 151.62584114 C263.47293225 155.39743688 263.28222261 159.14462341 263.13188171 162.93834114 C262.70849493 171.84517891 262.04890289 180.73156425 261.32054138 189.61787605 C261.19654295 191.14302462 261.07571987 192.6684353 260.95835876 194.19410896 C258.58128323 224.90384614 258.58128323 224.90384614 247.13188171 235.43834114 C241.09946396 240.58909783 234.85182116 242.72637929 227.02609253 242.64723396 C225.80241556 242.6587106 225.80241556 242.6587106 224.55401784 242.6704191 C221.8403655 242.69093649 219.12757086 242.68312306 216.41386414 242.67515755 C214.46010562 242.68385858 212.50635392 242.69422715 210.5526123 242.70613289 C205.25905062 242.73286479 199.96577496 242.73407555 194.67215896 242.72900629 C190.24640152 242.72686328 185.82070152 242.7366429 181.39495641 242.74621713 C170.94939217 242.76839149 160.50397177 242.76929169 150.05839539 242.7571888 C139.29848189 242.74511294 128.53909171 242.76972502 117.77926749 242.81232893 C108.52717235 242.84760988 99.27524341 242.85955588 90.02308351 242.85305345 C84.50343582 242.84943471 78.98416133 242.85462971 73.46457481 242.88248253 C68.27111091 242.9077099 63.07845987 242.90368596 57.88500786 242.87766075 C55.9851885 242.87294505 54.08531131 242.87834187 52.18555832 242.894907 C39.96230332 242.9937563 31.46893309 242.03758304 21.78813171 233.81724739 C20.90641296 232.7634388 20.90641296 232.7634388 20.00688171 231.68834114 C19.39844421 230.9883802 18.79000671 230.28841927 18.16313171 229.56724739 C14.22640624 223.76429121 12.86232727 217.9367586 11.91703796 211.10630989 C11.79264847 210.24080009 11.66825897 209.3752903 11.5401001 208.48355293 C10.13396577 198.17552923 9.53527107 187.81885364 8.94438171 177.43834114 C8.24817111 165.52863198 7.44660407 153.69904825 5.95976257 141.859972 C5.32986028 136.66624929 4.93298968 131.46881184 4.56938171 126.25084114 C3.80985088 115.91042638 2.96429295 105.5801919 2.06938171 95.25084114 C1.81136492 92.2638796 1.55364819 89.27689219 1.29594421 86.28990364 C1.23113861 85.53915565 1.16633301 84.78840767 1.0995636 84.01490974 C-0.82167216 61.73529528 -2.69220031 39.4530146 -4.26753235 17.14586067 C-4.43249683 14.93740766 -4.61382381 12.73015989 -4.80464172 10.52379036 C-4.90551086 9.33930305 -5.00638 8.15481575 -5.11030579 6.93443489 C-5.20682434 5.84831917 -5.3033429 4.76220345 -5.40278625 3.64317513 C-5.43259583 2.81245491 -5.4624054 1.9817347 -5.49311829 1.12584114 C-3.89333616 -0.47394098 -2.21664006 0.00042356 0 0 Z M62.50688171 26.12584114 C62.50688171 26.78584114 62.50688171 27.44584114 62.50688171 28.12584114 C61.84688171 28.12584114 61.18688171 28.12584114 60.50688171 28.12584114 C59.38704258 31.48535853 59.38103487 34.00593497 59.37989807 37.54736519 C59.37833808 38.20188571 59.37677809 38.85640623 59.37517083 39.53076071 C59.37117639 41.72792293 59.37434444 43.92501627 59.37748718 46.12217903 C59.37613247 47.69571155 59.37435214 49.26924375 59.37217712 50.84277534 C59.36761155 55.11946298 59.36938867 59.39612654 59.37255621 63.67281461 C59.37508387 68.14287014 59.37274118 72.61292359 59.37117004 77.0829792 C59.36934973 84.58921365 59.37175125 92.09543826 59.37651062 99.60167122 C59.38195495 108.28869542 59.38018878 116.97569615 59.37468421 125.66271979 C59.37015153 133.11328268 59.36950324 140.5638385 59.37212288 148.01440233 C59.37368454 152.46784852 59.37388241 156.92128367 59.3705864 161.37472916 C59.36770536 165.55992231 59.36968767 169.7450851 59.37548065 173.93027496 C59.37680691 175.46942914 59.37641639 177.00858585 59.37421799 178.54773903 C59.3715013 180.64229452 59.37489398 182.73675158 59.37989807 184.83130074 C59.3802751 186.00545571 59.38065212 187.17961069 59.38104057 188.38934612 C59.31981983 191.089762 59.31981983 191.089762 60.50688171 193.12584114 C61.16688171 193.12584114 61.82688171 193.12584114 62.50688171 193.12584114 C62.83688171 194.11584114 63.16688171 195.10584114 63.50688171 196.12584114 C67.11260876 197.32775015 69.71712521 197.45254429 73.50688171 197.12584114 C76.26017192 195.33021709 78.03315632 194.07329192 79.50688171 191.12584114 C79.60755156 189.03404481 79.64200627 186.93896959 79.64732361 184.84475899 C79.65029473 184.19320959 79.65326585 183.54166019 79.65632701 182.87036687 C79.66503034 180.67711042 79.66652363 178.48390844 79.66801453 176.29063606 C79.67264157 174.72211782 79.67766608 173.15360071 79.68305969 171.58508492 C79.69619724 167.31640916 79.70263136 163.04774913 79.70707035 158.77905631 C79.70999908 156.11325477 79.71410352 153.44745755 79.71857452 150.78165817 C79.73225344 142.44424464 79.74191799 134.10684096 79.74577641 125.76941699 C79.75025735 116.1391689 79.76780523 106.50906272 79.79677701 96.87885779 C79.81838275 89.43930748 79.82848011 81.99979713 79.82981753 74.56021577 C79.83086642 70.11499126 79.83679186 65.66990009 79.85463715 61.22470856 C79.87109857 57.04274262 79.87328278 52.86101051 79.86449814 48.67902374 C79.86372671 47.14434878 79.86808446 45.60966134 79.87795639 44.07501793 C79.89064817 41.9790242 79.88481502 39.8838621 79.87437439 37.78787422 C79.87584095 36.6151858 79.87730751 35.44249739 79.87881851 34.23427296 C79.46229796 30.75323599 78.60546026 28.9103893 76.50688171 26.12584114 C71.9294612 23.07422747 67.18024599 23.134888 62.50688171 26.12584114 Z M127.50688171 27.12584114 C125.22846286 30.57572091 125.25112216 33.57609346 125.23945618 37.64743233 C125.23492506 38.30069058 125.23039395 38.95394882 125.22572553 39.62700278 C125.21307376 41.81410626 125.21470235 44.00096099 125.21635437 46.188097 C125.21036966 47.75691231 125.20356424 49.32572467 125.19599915 50.89453316 C125.17832765 55.15484246 125.17364333 59.41507144 125.17236757 63.67541385 C125.1704684 67.23165663 125.16311079 70.78788069 125.15602338 74.34411627 C125.13973802 82.73352574 125.13485462 91.12289229 125.13627625 99.51231575 C125.13747824 108.16815512 125.11636526 116.82374538 125.08478892 125.47952169 C125.05864564 132.9106288 125.0479081 140.34165443 125.04918706 147.77280718 C125.04969721 152.21132862 125.04398518 156.6496286 125.02283096 161.08810425 C125.00348088 165.26195735 125.00330171 169.43537699 125.01786423 173.6092453 C125.01995735 175.14069692 125.01522142 176.67217544 125.00314331 178.20358086 C124.9877148 180.29531992 124.99698051 182.38555975 125.0124054 184.47726631 C125.01131586 185.64735709 125.01022633 186.81744787 125.00910378 188.02299595 C125.6116333 191.77879889 126.86075017 193.44241554 129.50688171 196.12584114 C133.64360202 197.6650859 137.41130291 197.59204489 141.44438171 195.87584114 C144.21481487 193.52517058 145.43522695 191.92945284 145.76135731 188.27188492 C145.76341018 187.10124937 145.76546305 185.93061382 145.76757812 184.72450447 C145.77140367 184.07210065 145.77522922 183.41969682 145.77917069 182.74752319 C145.78950497 180.55730416 145.78550781 178.36734709 145.78153992 176.17711067 C145.78588621 174.60844365 145.79106908 173.03977875 145.79702759 171.47111702 C145.81043892 167.2066083 145.81099381 162.94218808 145.80846429 158.67766237 C145.80739586 155.1189858 145.81227475 151.56032723 145.81706971 148.00165451 C145.82817263 139.60602469 145.82859813 131.2104396 145.82255554 122.81480598 C145.81651627 114.15164367 145.82882375 105.48864379 145.85012561 96.82550919 C145.86773665 89.3901774 145.87374369 81.95489732 145.87048787 74.51954544 C145.86867381 70.07769983 145.87132321 65.63597004 145.88520241 61.1941433 C145.89776779 57.01625326 145.89584896 52.83861646 145.88279152 48.66073036 C145.88042323 47.1276726 145.88316947 45.59459709 145.89141464 44.06155968 C145.90186313 41.9677937 145.89379772 39.8748804 145.88110352 37.7811451 C145.88127126 36.6097555 145.881439 35.4383659 145.88161182 34.23147964 C145.46536342 30.78175135 144.54901978 28.90805693 142.50688171 26.12584114 C137.5226334 22.51655788 132.1570144 23.50907127 127.50688171 27.12584114 Z M192.50688171 28.12584114 C191.39066679 31.47448592 191.37259628 33.99742772 191.35971069 37.52717781 C191.35603401 38.17958163 191.35235732 38.83198546 191.34856921 39.50415909 C191.33753979 41.69430455 191.33368985 43.88440255 191.32987976 46.07457161 C191.32361467 47.64323769 191.31696783 49.21190229 191.30996704 50.78056526 C191.288934 55.93470922 191.27856706 61.08885346 191.26860046 66.24302864 C191.26455297 68.01698637 191.26043605 69.79094394 191.25625038 71.56490135 C191.23720233 79.89696939 191.22296909 88.22902857 191.21463841 96.56111419 C191.20485953 106.18290403 191.1785215 115.80446421 191.13813752 125.42617309 C191.10799942 132.86149635 191.09317183 140.29675368 191.0898574 147.73213685 C191.08750474 152.1740412 191.07851608 156.61570009 191.05339622 161.05753899 C191.03014997 165.23546324 191.0258682 169.4129798 191.03615761 173.59095192 C191.03665388 175.12402259 191.03030636 176.65711311 191.01660156 178.1901226 C190.99892962 180.28408417 191.00596343 182.37657499 191.01913452 184.47053719 C191.01674617 185.64192678 191.01435781 186.81331638 191.01189709 188.02020264 C191.61064273 191.77685975 192.87630681 193.42992284 195.50688171 196.12584114 C198.53125511 197.63802784 201.16929705 197.29847483 204.50688171 197.12584114 C208.00309784 195.96043577 209.60738869 194.25267858 211.50688171 191.12584114 C211.96100794 188.0660236 211.96100794 188.0660236 211.89456177 184.61097908 C211.89994731 183.9584264 211.90533284 183.30587372 211.91088158 182.63354671 C211.92518014 180.44865701 211.91805313 178.26437155 211.91093445 176.07945442 C211.91663712 174.51225993 211.92360098 172.94506959 211.93173218 171.37788582 C211.94969194 167.12159744 211.94848974 162.86551491 211.94278979 158.6092 C211.93970146 155.05553032 211.94578655 151.50190038 211.95182854 147.94823635 C211.96588191 139.56355673 211.96430623 131.17897899 211.95292664 122.79429817 C211.94144911 114.14641823 211.955513 105.49884854 211.98232311 96.85100949 C212.00448279 89.42497197 212.01111676 81.99903182 212.0052467 74.5729636 C212.001876 70.13833622 212.0042994 65.70390765 212.02149773 61.26930809 C212.03696872 57.0978945 212.03300985 52.92694012 212.01419258 48.75554466 C212.01050685 47.22613297 212.01361478 45.69668724 212.02407837 44.1673069 C212.03729262 42.07590008 212.02573974 39.98601253 212.00808716 37.89467049 C212.00787787 36.7255015 212.00766859 35.55633251 212.00745296 34.35173416 C211.39311979 30.39271116 210.02646091 28.2101454 207.50688171 25.12584114 C201.34791798 23.07285323 197.11056145 23.38675906 192.50688171 28.12584114 Z " fill="#FEFEFE" transform="translate(120.49311828613281,200.87415885925293)"/>
<path d="M0 0 C1.66329807 -0.00337603 3.32659371 -0.00823517 4.98988342 -0.01449585 C8.46216507 -0.02183229 11.93379993 -0.01126858 15.40600586 0.01220703 C19.82863692 0.04067127 24.2497489 0.02428626 28.67232418 -0.00565529 C32.10334956 -0.02383566 35.53402253 -0.01792116 38.96505928 -0.00501633 C40.59433744 -0.00171069 42.22364893 -0.00566786 43.85288811 -0.01741409 C54.06353334 -0.0748863 63.91505333 0.21187462 71.83262634 7.56576538 C75.78515625 11.86959941 75.78515625 11.86959941 75.78515625 14.6640625 C76.44515625 14.6640625 77.10515625 14.6640625 77.78515625 14.6640625 C80.68033859 21.27986215 83.31064368 27.9413069 85.59765625 34.7890625 C85.81639404 35.44011963 86.03513184 36.09117676 86.26049805 36.76196289 C87.78515625 41.40465449 87.78515625 41.40465449 87.78515625 43.6640625 C88.66497162 43.65518005 89.54478699 43.64629761 90.45126343 43.637146 C98.77743194 43.5567129 107.10346836 43.49595287 115.42993736 43.45681381 C119.70980902 43.43601491 123.98935734 43.4078398 128.26904297 43.36230469 C132.40582036 43.31856983 136.54228843 43.29486763 140.67927933 43.28455353 C142.25081877 43.27721138 143.82234292 43.26287484 145.39374924 43.24114227 C154.20669404 43.12420135 161.81353908 43.37154795 169.78515625 47.6640625 C169.78515625 48.3240625 169.78515625 48.9840625 169.78515625 49.6640625 C170.62046875 49.756875 170.62046875 49.756875 171.47265625 49.8515625 C174.77583667 51.0121394 176.50410358 53.06619696 178.78515625 55.6640625 C178.78515625 56.3240625 178.78515625 56.9840625 178.78515625 57.6640625 C179.44515625 57.6640625 180.10515625 57.6640625 180.78515625 57.6640625 C185.15034569 63.66619799 186.09975864 70.31876555 186.15625 77.57421875 C186.16527847 78.3047496 186.17430695 79.03528046 186.18360901 79.78794861 C186.19802266 81.32156325 186.20697594 82.85523815 186.21069336 84.38891602 C186.2226458 86.72452038 186.27195708 89.05752533 186.32226562 91.39257812 C186.33172601 92.89061225 186.33896289 94.38866241 186.34375 95.88671875 C186.36328232 96.57750015 186.38281464 97.26828156 186.40293884 97.97999573 C186.36873952 101.68063428 185.7938115 104.13687141 183.56274414 107.02514648 C179.44658024 110.93580972 176.0089431 111.91328686 170.40331745 111.91853809 C168.79353141 111.92728638 168.79353141 111.92728638 167.15122443 111.93621141 C165.39152085 111.93054242 165.39152085 111.93054242 163.5962677 111.92475891 C162.34540066 111.92858446 161.09453362 111.93241001 159.80576152 111.93635148 C156.33604971 111.94664427 152.86644109 111.94444639 149.39672077 111.94017088 C145.65355809 111.93770589 141.9104204 111.94671515 138.16726685 111.95420837 C130.83391921 111.96696503 123.50060818 111.96874775 116.16725133 111.96640811 C110.20492312 111.96462539 104.24260603 111.96637362 98.28027916 111.97063255 C97.43180794 111.97122774 96.58333672 111.97182293 95.70915424 111.97243616 C93.98546023 111.97364791 92.26176621 111.97486205 90.53807219 111.97607853 C74.36772945 111.9869584 58.19740755 111.98478983 42.02706363 111.97869369 C27.24193156 111.97352764 12.45686544 111.98477091 -2.32825359 112.00379191 C-17.51357305 112.02317772 -32.69886133 112.03142478 -47.88419324 112.02766865 C-56.40789128 112.02575729 -64.93153324 112.02823761 -73.45522118 112.04238319 C-80.71401784 112.05430766 -87.97272393 112.05569018 -95.23152187 112.04359303 C-98.9330164 112.03771097 -102.63434535 112.03658601 -106.33582878 112.04859543 C-110.35436225 112.06148153 -114.37250294 112.05097335 -118.39103699 112.0382843 C-119.5530191 112.04565859 -120.71500121 112.05303287 -121.91219491 112.06063062 C-128.54243271 112.01664259 -135.19609107 111.72949417 -141.21484375 108.6640625 C-144.61955735 104.99318379 -144.6539162 101.71519565 -144.61328125 96.8984375 C-144.61615143 96.14620911 -144.61902161 95.39398071 -144.62197876 94.61895752 C-144.624017 93.02867886 -144.61850386 91.438375 -144.60595703 89.84814453 C-144.58998857 87.43593932 -144.60576592 85.02543246 -144.625 82.61328125 C-144.62301577 81.06249635 -144.61916839 79.5117125 -144.61328125 77.9609375 C-144.61935394 77.24919373 -144.62542664 76.53744995 -144.63168335 75.80413818 C-144.53967456 69.11777436 -142.40102439 63.54624214 -139.21484375 57.6640625 C-138.55484375 57.6640625 -137.89484375 57.6640625 -137.21484375 57.6640625 C-136.96734375 57.0865625 -136.71984375 56.5090625 -136.46484375 55.9140625 C-135.02090676 53.31497592 -133.47962388 51.58569412 -131.21484375 49.6640625 C-130.22484375 49.6640625 -129.23484375 49.6640625 -128.21484375 49.6640625 C-128.21484375 49.0040625 -128.21484375 48.3440625 -128.21484375 47.6640625 C-119.51552213 42.97969748 -111.06598216 43.14097779 -101.48828125 43.2734375 C-99.88832308 43.28091242 -98.28835566 43.28659943 -96.68838501 43.29058838 C-92.50923689 43.30574654 -88.33065875 43.34494125 -84.1517334 43.3894043 C-79.8746715 43.43057104 -75.59751608 43.44864475 -71.3203125 43.46875 C-62.95156347 43.51144708 -54.58327483 43.57957643 -46.21484375 43.6640625 C-46.01273788 42.98913757 -45.81063202 42.31421265 -45.60240173 41.61883545 C-45.20161156 40.28142303 -45.20161156 40.28142303 -44.79272461 38.91699219 C-44.52874374 38.03581726 -44.26476288 37.15464233 -43.99278259 36.24676514 C-42.95197596 32.7913598 -41.88264152 29.3495454 -40.77734375 25.9140625 C-40.38675781 24.68171875 -39.99617188 23.449375 -39.59375 22.1796875 C-35.97040537 12.94169837 -29.25566545 5.97709066 -20.36740112 1.70074463 C-13.79632718 -0.46007724 -6.84589183 -0.04928539 0 0 Z M-14.21484375 25.6640625 C-14.21484375 26.3240625 -14.21484375 26.9840625 -14.21484375 27.6640625 C-14.87484375 27.6640625 -15.53484375 27.6640625 -16.21484375 27.6640625 C-17.04998234 30.14263454 -17.883035 32.62187317 -18.71484375 35.1015625 C-18.95332031 35.80861328 -19.19179687 36.51566406 -19.4375 37.24414062 C-20.67662715 40.3878651 -20.67662715 40.3878651 -21.21484375 43.6640625 C6.50515625 43.6640625 34.22515625 43.6640625 62.78515625 43.6640625 C60.76707303 35.47660473 60.76707303 35.47660473 57.78515625 27.6640625 C57.12515625 27.6640625 56.46515625 27.6640625 55.78515625 27.6640625 C55.29015625 26.1790625 55.29015625 26.1790625 54.78515625 24.6640625 C51.5580262 23.58835248 49.21080271 23.53074846 45.81665039 23.51879883 C44.58850113 23.51241898 43.36035187 23.50603912 42.09498596 23.49946594 C40.75342854 23.49793728 39.41187059 23.49682331 38.0703125 23.49609375 C36.69412705 23.4928801 35.31794194 23.48951595 33.9417572 23.48600769 C31.05759896 23.48002109 28.17347066 23.47816733 25.28930664 23.47875977 C21.59600313 23.47886141 17.90289179 23.46520531 14.20963383 23.44798756 C11.36745829 23.43686251 8.52532916 23.43484071 5.68313408 23.43536949 C4.32159195 23.43419029 2.96004858 23.42977183 1.59852791 23.42203712 C-0.30660395 23.41222689 -2.21179219 23.41638221 -4.11694336 23.42114258 C-5.20043564 23.41971756 -6.28392792 23.41829254 -7.4002533 23.41682434 C-10.19380844 23.66221472 -11.84103954 24.22000107 -14.21484375 25.6640625 Z " fill="#FEFEFE" transform="translate(235.21484375,68.3359375)"/>
</svg>
